<svg width="80" height="80" viewBox="0 0 80 80" fill="none" xmlns="http://www.w3.org/2000/svg">
<rect x="1" y="1" width="78" height="78" stroke="white" stroke-width="2"/>
<path d="M26.4955 28L25.0795 21.376L24.9595 18.808H24.5515V32.8H21.9355V16H25.9435L27.3835 24.232L27.4075 25.384H27.8155L27.8395 24.232L29.2795 16H33.2635V32.8H30.6475V18.808H30.2635L30.1435 21.376L28.7275 28H26.4955Z" fill="white"/>
<path d="M47.1113 32.8L51.7193 16H56.3033L60.8873 32.8H57.7913L56.3993 27.256H51.6233L50.2073 32.8H47.1113ZM52.2713 24.64H55.7273L54.3353 19.096L54.2153 17.512H53.8073L53.6873 19.096L52.2713 24.64Z" fill="white"/>
<path d="M26.878 62.7856C23.302 62.7856 21.334 60.6016 21.334 56.5216V53.8096H24.214V56.5216C24.214 58.8736 25.126 60.0736 26.902 60.0736C28.798 60.0736 29.638 58.6096 29.638 56.5696V45.6016H32.518V56.5696C32.518 60.4816 30.43 62.7856 26.878 62.7856Z" fill="white"/>
<path d="M48.4551 62.4016V59.8096H52.5591V48.1936H48.4551V45.6016H59.5431V48.1936H55.4391V59.8096H59.5431V62.4016H48.4551Z" fill="white"/>
</svg>
