<svg width="48" height="48" viewBox="0 0 48 48" fill="none" xmlns="http://www.w3.org/2000/svg">
<rect x="1" y="1" width="46" height="46" stroke="#0F021A" stroke-opacity="0.9" stroke-width="2"/>
<path d="M15.8962 16.8016L15.0466 12.8272L14.9746 11.2864H14.7298V19.6816H13.1602V9.60156H15.565L16.429 14.5408L16.4434 15.232H16.6882L16.7026 14.5408L17.5666 9.60156H19.957V19.6816H18.3874V11.2864H18.157L18.085 12.8272L17.2354 16.8016H15.8962Z" fill="#0F021A" fill-opacity="0.9"/>
<path d="M28.2656 19.6816L31.0304 9.60156H33.7808L36.5312 19.6816H34.6736L33.8384 16.3552H30.9728L30.1232 19.6816H28.2656ZM31.3616 14.7856H33.4352L32.6 11.4592L32.528 10.5088H32.2832L32.2112 11.4592L31.3616 14.7856Z" fill="#0F021A" fill-opacity="0.9"/>
<path d="M16.1272 37.6698C13.9816 37.6698 12.8008 36.3594 12.8008 33.9114V32.2842H14.5288V33.9114C14.5288 35.3226 15.076 36.0426 16.1416 36.0426C17.2792 36.0426 17.7832 35.1642 17.7832 33.9402V27.3594H19.5112V33.9402C19.5112 36.2874 18.2584 37.6698 16.1272 37.6698Z" fill="#0F021A" fill-opacity="0.9"/>
<path d="M29.0742 37.4394V35.8842H31.5366V28.9146H29.0742V27.3594H35.727V28.9146H33.2646V35.8842H35.727V37.4394H29.0742Z" fill="#0F021A" fill-opacity="0.9"/>
</svg>
