<svg width="24" height="24" viewBox="0 0 24 24" fill="none" xmlns="http://www.w3.org/2000/svg">
<path fill-rule="evenodd" clip-rule="evenodd" d="M5.81126 1.34766C3.34609 1.34766 1.34766 3.34608 1.34766 5.81128V17.7142C1.34766 20.1794 3.34609 22.1779 5.81126 22.1779H17.7143C20.1794 22.1779 22.1778 20.1794 22.1778 17.7142V5.81128C22.1778 3.34608 20.1794 1.34766 17.7143 1.34766H5.81126ZM18.9991 5.81774C18.9991 6.52781 18.4235 7.10345 17.7134 7.10345C17.0033 7.10345 16.4277 6.52781 16.4277 5.81774C16.4277 5.10765 17.0033 4.53203 17.7134 4.53203C18.4235 4.53203 18.9991 5.10765 18.9991 5.81774ZM11.763 8.19684C9.79364 8.19684 8.19715 9.79332 8.19715 11.7627C8.19715 13.732 9.79364 15.3285 11.763 15.3285C13.7323 15.3285 15.3288 13.732 15.3288 11.7627C15.3288 9.79332 13.7323 8.19684 11.763 8.19684ZM6.48287 11.7627C6.48287 8.84654 8.84685 6.48256 11.763 6.48256C14.6791 6.48256 17.0431 8.84654 17.0431 11.7627C17.0431 14.6788 14.6791 17.0428 11.763 17.0428C8.84685 17.0428 6.48287 14.6788 6.48287 11.7627Z" fill="white"/>
</svg>
